<svg width="94" height="79" viewBox="0 0 94 79" fill="none" xmlns="http://www.w3.org/2000/svg">
<g clip-path="url(#clip0)">
<path d="M91.5549 67.1694L54.6957 36.1919L11.632 0H8.2665L7.57931 1.46752C5.76559 5.34099 4.99064 9.30271 5.33855 12.9239C5.73511 17.0517 7.60097 20.6253 10.7347 23.259L44.3526 51.5123L48.7867 47.7857L79.8664 76.9931C82.9581 79.5914 88.2796 79.7457 91.5549 76.9931C94.7777 74.2845 94.7777 69.8778 91.5549 67.1694Z" fill="white"/>
<path d="M28.7749 44.9686L2.44551 67.0965C-0.776923 69.8047 -0.776923 74.2115 2.44551 76.9198C5.50676 79.4925 10.8025 79.7196 14.134 76.9198L40.4636 54.7917L28.7749 44.9686Z" fill="white"/>
<path d="M90.0074 13.1537L75.0719 25.7057L71.1754 22.4312L86.111 9.87901L82.2148 6.60453L67.2794 19.1566L63.3832 15.8821L78.3187 3.33004L74.4227 0.0557022L54.9415 16.4281C52.5583 18.4311 51.1353 21.0905 50.9341 23.9169C50.8832 24.633 50.6901 25.3374 50.3697 26.0074L63.0246 36.6429C63.8218 36.3733 64.6601 36.2112 65.5119 36.1684C68.875 35.9998 72.0394 34.8035 74.4227 32.8006L93.9038 16.4283L90.0074 13.1537Z" fill="white"/>
</g>
<defs>
<clipPath id="clip0">
<rect width="94" height="79" fill="white"/>
</clipPath>
</defs>
</svg>
