<svg width="56" height="52" viewBox="0 0 56 52" fill="none" xmlns="http://www.w3.org/2000/svg">
<g clip-path="url(#clip0)">
<path d="M55.1241 10.7019C54.3729 9.83883 53.2565 9.34391 52.0612 9.34391H9.37743L8.99626 6.80731C8.72632 5.01108 7.04983 3.65645 5.09652 3.65645H1.74999C0.783558 3.65645 0 4.38404 0 5.28144C0 6.17884 0.783558 6.90643 1.74999 6.90643H5.09652C5.31352 6.90643 5.49989 7.05694 5.52975 7.25651L10.2535 38.6929C10.5235 40.4892 12.1999 41.8437 14.1533 41.8437H16.0508C15.8565 42.3523 15.7498 42.8991 15.7498 43.4687C15.7498 46.1568 18.105 48.3437 20.9998 48.3437C23.8946 48.3437 26.2497 46.1568 26.2497 43.4687C26.2497 42.8991 26.143 42.3523 25.9487 41.8437H35.3007C35.1064 42.3523 34.9997 42.8991 34.9997 43.4687C34.9997 46.1568 37.3548 48.3437 40.2497 48.3437C43.1445 48.3437 45.4996 46.1568 45.4996 43.4687C45.4996 42.8991 45.3929 42.3523 45.1986 41.8437H48.9997C49.9661 41.8437 50.7497 41.1161 50.7497 40.2187C50.7497 39.3213 49.9661 38.5937 48.9997 38.5937H14.1534C13.9364 38.5937 13.75 38.4432 13.7201 38.2437L13.2844 35.3438H47.7485C49.5923 35.3438 51.2116 34.1286 51.599 32.4535L55.9115 13.7664C56.1621 12.6816 55.8751 11.5647 55.1241 10.7019ZM22.7499 43.4687C22.7499 44.3647 21.9648 45.0937 20.9999 45.0937C20.035 45.0937 19.2499 44.3647 19.2499 43.4687C19.2499 42.5727 20.035 41.8437 20.9999 41.8437C21.9648 41.8437 22.7499 42.5726 22.7499 43.4687ZM41.9998 43.4687C41.9998 44.3647 41.2147 45.0937 40.2498 45.0937C39.2849 45.0937 38.4998 44.3647 38.4998 43.4687C38.4998 42.5727 39.2849 41.8437 40.2498 41.8437C41.2147 41.8437 41.9998 42.5726 41.9998 43.4687ZM52.4893 13.0852L48.1769 31.7718C48.1338 31.9583 47.9535 32.0937 47.7485 32.0937H12.7959L9.86579 12.5938H52.0611C52.2342 12.5938 52.3421 12.6759 52.402 12.7447C52.4618 12.8135 52.5255 12.9283 52.4893 13.0852Z" fill="white"/>
</g>
<defs>
<clipPath id="clip0">
<rect width="56" height="52" fill="white"/>
</clipPath>
</defs>
</svg>
